<svg width="26" height="26" viewBox="0 0 26 26" fill="none" xmlns="http://www.w3.org/2000/svg">
<path d="M25.0647 12.6709C25.0647 19.5166 19.554 25.0628 12.7602 25.0628C5.96651 25.0628 0.455741 19.5166 0.455741 12.6709C0.455741 5.82517 5.96651 0.278983 12.7602 0.278983C19.554 0.278983 25.0647 5.82517 25.0647 12.6709Z" fill="white" stroke="#F0F0F0" stroke-width="0.571637"/>
<g opacity="0.4">
<path fill-rule="evenodd" clip-rule="evenodd" d="M11.5788 10.4778C11.5788 9.69886 12.2103 9.0674 12.9893 9.0674C13.7682 9.0674 14.3997 9.69886 14.3997 10.4778C14.3997 11.2568 13.7682 11.8882 12.9893 11.8882C12.2103 11.8882 11.5788 11.2568 11.5788 10.4778ZM12.9893 8.22559C11.7454 8.22559 10.737 9.23394 10.737 10.4778C10.737 11.7217 11.7454 12.73 12.9893 12.73C14.2331 12.73 15.2415 11.7217 15.2415 10.4778C15.2415 9.23394 14.2331 8.22559 12.9893 8.22559ZM11.1585 13.7196C10.5611 13.7196 9.98829 13.9569 9.56591 14.3792C9.14354 14.8016 8.90625 15.3745 8.90625 15.9718V16.8875C8.90625 17.1199 9.0947 17.3084 9.32716 17.3084C9.55962 17.3084 9.74806 17.1199 9.74806 16.8875V15.9718C9.74806 15.5977 9.89666 15.239 10.1612 14.9745C10.4257 14.71 10.7844 14.5614 11.1585 14.5614H14.8211C15.1952 14.5614 15.5539 14.71 15.8184 14.9745C16.0829 15.239 16.2315 15.5977 16.2315 15.9718V16.8875C16.2315 17.1199 16.42 17.3084 16.6524 17.3084C16.8849 17.3084 17.0733 17.1199 17.0733 16.8875V15.9718C17.0733 15.3745 16.836 14.8016 16.4137 14.3792C15.9913 13.9569 15.4184 13.7196 14.8211 13.7196H11.1585Z" fill="#07121B"/>
</g>
</svg>
