<svg width="14" height="14" viewBox="0 0 14 14" fill="none" xmlns="http://www.w3.org/2000/svg">
<g clip-path="url(#clip0_420_8981)">
<path d="M13.9636 5.37048C13.8719 5.08699 13.6205 4.88565 13.323 4.85884L9.28223 4.49193L7.68439 0.752041C7.56658 0.477956 7.29826 0.300537 7.00014 0.300537C6.70202 0.300537 6.4337 0.477956 6.31589 0.752682L4.71805 4.49193L0.676629 4.85884C0.379685 4.88629 0.128885 5.08699 0.0367042 5.37048C-0.0554765 5.65396 0.0296544 5.9649 0.254285 6.1609L3.30864 8.83959L2.40798 12.807C2.34208 13.0987 2.4553 13.4002 2.69734 13.5752C2.82744 13.6692 2.97965 13.717 3.13314 13.717C3.26549 13.717 3.39676 13.6814 3.51458 13.6109L7.00014 11.5277L10.4844 13.6109C10.7394 13.7643 11.0608 13.7503 11.3023 13.5752C11.5444 13.3997 11.6576 13.0981 11.5917 12.807L10.691 8.83959L13.7454 6.16144C13.97 5.9649 14.0558 5.6545 13.9636 5.37048Z" fill="#FFC107"/>
</g>
<defs>
<clipPath id="clip0_420_8981">
<rect width="14" height="14" fill="white"/>
</clipPath>
</defs>
</svg>
