<svg width="9" height="10" viewBox="0 0 9 10" fill="none" xmlns="http://www.w3.org/2000/svg">
<g clip-path="url(#clip0_5611_6621)">
<path d="M4.35267 1.48242C2.4785 1.48242 0.96875 2.99217 0.96875 4.86634C0.96875 6.74051 2.4785 8.25026 4.35267 8.25026C6.22684 8.25026 7.73659 6.74051 7.73659 4.86634C7.73659 4.50244 7.68765 4.13932 7.5575 3.80067L7.13477 4.21559C7.18683 4.42383 7.21624 4.63259 7.21624 4.86634C7.21624 6.4547 5.94129 7.72965 4.35293 7.72965C2.76457 7.72965 1.48935 6.4547 1.48935 4.86634C1.48935 3.27798 2.76431 2.00302 4.35267 2.00302C5.13357 2.00302 5.83508 2.31408 6.3294 2.8084L6.69538 2.44241C6.09669 1.8432 5.26372 1.48242 4.35267 1.48242Z" fill="#0BB07E"/>
<path fill-rule="evenodd" clip-rule="evenodd" d="M7.07295 2.56173C7.1306 2.52701 7.19945 2.51597 7.26507 2.53092C7.33068 2.54587 7.38796 2.58564 7.42488 2.64191L7.68258 3.03496C7.71624 3.08633 7.73065 3.14795 7.72327 3.20893C7.71589 3.2699 7.68718 3.3263 7.64223 3.36815L7.64145 3.36919L7.63781 3.37257L7.62297 3.38637L7.5644 3.44233C7.24032 3.75667 6.92607 4.08099 6.62211 4.41482C6.05023 5.04371 5.3711 5.86678 4.91401 6.66539C4.78646 6.8882 4.47488 6.9361 4.29007 6.74374L2.60202 4.98983C2.57782 4.96468 2.55894 4.93493 2.54647 4.90234C2.53401 4.86975 2.52822 4.83499 2.52946 4.80012C2.5307 4.76525 2.53894 4.73098 2.55368 4.69936C2.56842 4.66773 2.58938 4.6394 2.61529 4.61603L3.12548 4.15582C3.17032 4.1154 3.22781 4.09182 3.28811 4.08911C3.34842 4.0864 3.40779 4.10474 3.45606 4.14098L4.3174 4.78679C5.66264 3.46003 6.42584 2.95089 7.07295 2.56173ZM7.12761 3.13856C6.53152 3.51131 5.78758 4.05196 4.52512 5.31416C4.48082 5.35846 4.42203 5.3853 4.35953 5.38975C4.29704 5.3942 4.23504 5.37595 4.18491 5.33837L3.31498 4.68605L3.16375 4.82245L4.54777 6.26088C5.02828 5.46175 5.68971 4.66627 6.23712 4.06445C6.52539 3.74778 6.82269 3.43946 7.12866 3.13986L7.12761 3.13856Z" fill="#0BB07E"/>
</g>
<defs>
<clipPath id="clip0_5611_6621">
<rect width="8.32964" height="8.32964" fill="white" transform="translate(0.1875 0.702148)"/>
</clipPath>
</defs>
</svg>
