<svg width="190" height="40" viewBox="0 0 190 40" fill="none" xmlns="http://www.w3.org/2000/svg">
<g clip-path="url(#clip0_437_9214)">
<path d="M74.334 10.6832V15.9543C70.4026 15.3351 67.2399 17.7234 67.334 21.8249V31.6267H62.6435V10.9879H67.334V14.0903H67.3956C68.1637 12.9681 69.2066 12.0659 70.4225 11.4717C71.6384 10.8775 72.986 10.6115 74.334 10.6996" fill="white"/>
<path d="M77.0004 6.97143C74.1037 3.94113 78.5022 -0.350434 81.4703 2.53573C84.3896 5.56275 79.9295 9.82483 77.0004 6.97143ZM76.8771 10.9714H81.5643V31.6103H76.8738L76.8771 10.9714Z" fill="white"/>
<path d="M90.1603 30.6338C85.1097 27.9901 83.7636 20.5797 86.4559 15.7771C89.8132 9.3758 99.8851 9.02527 104.297 14.506L101.105 17.2972C97.3549 12.8549 89.638 15.004 89.8846 21.2874C89.6932 27.6231 97.2025 29.6936 101.147 25.4217L104.391 28.3177C101.147 32.0457 94.5264 33.0908 90.183 30.6338" fill="white"/>
<path d="M149.229 19.1152H144.318C145.651 23.089 143.021 27.777 138.68 27.6558C134.324 27.813 131.693 23.0366 133.027 19.1152H128.125C125.53 36.2127 151.831 36.2455 149.229 19.1152Z" fill="white"/>
<path d="M170.155 10.9712L158.918 39.9999H153.985L157.669 30.4667L149.356 10.9712H154.289L159.94 24.9073H159.982L165.244 10.9712H170.155Z" fill="white"/>
<path d="M58.5596 6.23761C55.4099 -0.0752455 45.0915 0.013206 42.0164 6.32934C41.2695 7.78821 40.8738 9.40446 40.8617 11.0468V31.6299H45.7273V20.0394C55.0888 24.3605 62.9387 15.2663 58.5531 6.23761H58.5596ZM53.7426 15.037C51.9294 17.0419 48.4067 17.0288 46.6258 15.0075C44.7444 13.0943 44.7639 9.33343 46.6258 7.41697C48.3353 5.40223 52.0072 5.38913 53.7621 7.38749C55.6435 9.24171 55.6694 13.1762 53.7459 15.037" fill="white"/>
<path d="M144.062 13.2876C144.257 13.3408 144.441 13.4324 144.601 13.5572C144.762 13.682 144.896 13.8376 144.997 14.015C145.098 14.1924 145.164 14.3881 145.19 14.5911C145.215 14.794 145.202 15.0001 145.148 15.1975L147.607 15.8691C148.846 10.5522 141.282 8.49483 139.709 13.7168L142.167 14.372C142.22 14.1743 142.312 13.9891 142.435 13.8269C142.559 13.6648 142.714 13.5289 142.89 13.4269C143.065 13.325 143.26 13.2591 143.461 13.233C143.662 13.2068 143.866 13.2209 144.062 13.2745" fill="white"/>
<path d="M132.196 15.2139C131.716 13.2156 134.597 12.4293 135.18 14.4015L137.636 13.7463C136.063 8.50466 128.498 10.5849 129.741 15.8986L132.196 15.2139Z" fill="white"/>
<path d="M125.615 21.0614C125.997 9.59539 110.619 6.62078 106.476 16.9631C104.611 21.7788 106.152 28.2129 110.833 30.6535C115.163 33.0712 121.375 31.9639 124.635 28.3079C124.603 28.2915 121.427 25.4381 121.391 25.4119C118.258 29.0581 111.439 28.1605 110.589 22.9418H125.485C125.575 22.3193 125.617 21.6905 125.608 21.0614H125.615ZM110.664 19.1187C111.825 13.6576 119.863 13.52 120.905 19.1187H110.664Z" fill="white"/>
<path d="M189.997 21.0614C190.376 9.59539 175.001 6.62078 170.859 16.9631C168.997 21.7788 170.534 28.2129 175.215 30.6535C179.545 33.0712 185.76 31.9639 189.02 28.3079C188.985 28.2915 185.812 25.4381 185.777 25.4119C182.64 29.0581 175.822 28.1605 174.972 22.9418H189.883C189.977 22.3196 190.019 21.6907 190.01 21.0614H189.997ZM175.062 19.1187C176.227 13.6576 184.265 13.52 185.306 19.1187H175.062Z" fill="white"/>
<path d="M27.945 11.6558C27.186 -3.89868 5.23867 -3.87575 4.49909 11.6558H0L2.06952 30.1652C2.3939 33.1136 4.15201 35.3708 7.80124 35.3642H24.6688C28.3083 35.3642 30.0664 33.1464 30.4005 30.8204L32.4538 11.6558H27.945ZM8.90088 29.9555C8.84249 27.4789 8.65435 19.7344 8.6057 17.3986C8.6057 14.8761 8.12237 10.958 9.17984 8.60255C9.76502 7.28706 10.6987 6.16045 11.8779 5.34706C13.057 4.53368 14.4358 4.06516 15.862 3.99321C28.7235 4.45841 24.8569 23.4035 12.9686 18.8532C13.0659 21.5919 13.2929 27.1546 13.3805 29.9555H8.90088Z" fill="white"/>
<path d="M15.0186 15.1581C15.5689 15.3554 16.1588 15.4132 16.7364 15.3266C17.314 15.24 17.8617 15.0115 18.3315 14.6612C18.8013 14.311 19.1788 13.8496 19.4308 13.3177C19.6829 12.7857 19.8018 12.1994 19.7772 11.6102C19.6929 8.96315 16.6697 7.29238 14.4218 8.66175C13.8404 9.00953 13.3687 9.5169 13.0616 10.1248C12.7545 10.7328 12.6247 11.4163 12.6872 12.0958C12.7498 12.7753 13.0021 13.423 13.4148 13.9633C13.8275 14.5037 14.3837 14.9146 15.0186 15.1482" fill="white"/>
</g>
<defs>
<clipPath id="clip0_437_9214">
<rect width="190" height="40" fill="white"/>
</clipPath>
</defs>
</svg>
