<svg width="20" height="28" viewBox="0 0 20 28" fill="none" xmlns="http://www.w3.org/2000/svg">
<path d="M9.99998 17.25C12.3516 17.25 14.2358 15.3517 14.2358 13L14.25 4.5C14.25 2.14833 12.3516 0.25 9.99998 0.25C7.64831 0.25 5.74998 2.14833 5.74998 4.5V13C5.74998 15.3517 7.64831 17.25 9.99998 17.25ZM17.5083 13C17.5083 17.25 13.91 20.225 9.99998 20.225C6.08998 20.225 2.49165 17.25 2.49165 13H0.083313C0.083313 17.845 3.93665 21.8258 8.58331 22.52V27.1667H11.4166V22.52C16.0633 21.84 19.9166 17.845 19.9166 13H17.5083Z" fill="#48AFFF"/>
</svg>
